<svg width="300" height="24" viewBox="0 0 300 24" fill="none" xmlns="http://www.w3.org/2000/svg">
<path fill-rule="evenodd" clip-rule="evenodd" d="M0.828125 18H8.26953C10.8789 18 12.8086 16.9258 14.0586 14.7773C14.9805 13.1836 15.4414 11.2383 15.4414 8.94141C15.4414 8.03516 15.332 7.08203 15.1133 6.08203C14.8945 5.08203 14.4844 4.15234 13.8828 3.29297C13.1328 2.23047 12.1523 1.5 10.9414 1.10156C10.2305 0.867188 9.33984 0.742188 8.26953 0.726562H0.828125V18ZM7.66016 3.72656C9.30078 3.72656 10.3984 4.19531 10.9531 5.13281C11.5 6.07812 11.7734 7.42969 11.7734 9.1875C11.7734 10.4609 11.5898 11.5586 11.2227 12.4805C10.5508 14.1602 9.36328 15 7.66016 15H4.33203V3.72656H7.66016Z" fill="white"/>
<path d="M24.3125 8.30859C22.9688 8.30859 22.0664 8.74609 21.6055 9.62109C21.3477 10.1133 21.2188 10.8711 21.2188 11.8945V18H17.8555V5.22656H21.043V7.45312C21.5586 6.60156 22.0078 6.01953 22.3906 5.70703C23.0156 5.18359 23.8281 4.92188 24.8281 4.92188C24.8906 4.92188 24.9434 4.92383 24.9863 4.92773C25.0293 4.93164 25.125 4.9375 25.2734 4.94531V8.36719C25.0625 8.34375 24.875 8.32812 24.7109 8.32031C24.5469 8.3125 24.4141 8.30859 24.3125 8.30859Z" fill="white"/>
<path fill-rule="evenodd" clip-rule="evenodd" d="M36.9805 16.5586C37.6836 15.7773 38.0781 15.0078 38.1641 14.25H34.7539C34.5742 14.625 34.3672 14.918 34.1328 15.1289C33.7031 15.5195 33.1445 15.7148 32.457 15.7148C31.8086 15.7148 31.2539 15.5547 30.793 15.2344C30.0352 14.7188 29.6328 13.8203 29.5859 12.5391H38.3281C38.3438 11.4375 38.3086 10.5938 38.2227 10.0078C38.0742 9.00781 37.75 8.12891 37.25 7.37109C36.6953 6.51172 35.9922 5.88281 35.1406 5.48438C34.2891 5.08594 33.332 4.88672 32.2695 4.88672C30.4805 4.88672 29.0254 5.47656 27.9043 6.65625C26.7832 7.83594 26.2227 9.53125 26.2227 11.7422C26.2227 14.1016 26.8438 15.8047 28.0859 16.8516C29.3281 17.8984 30.7617 18.4219 32.3867 18.4219C34.3555 18.4219 35.8867 17.8008 36.9805 16.5586ZM34.0566 8.32617C34.5371 8.7832 34.8047 9.45312 34.8594 10.3359H29.668C29.7773 9.50781 30.0449 8.85156 30.4707 8.36719C30.8965 7.88281 31.4961 7.64062 32.2695 7.64062C32.9805 7.64062 33.5762 7.86914 34.0566 8.32617Z" fill="white"/>
<path fill-rule="evenodd" clip-rule="evenodd" d="M45.6055 4.92188C43.457 4.92188 41.9414 5.48438 41.0586 6.60938C40.5039 7.32812 40.1914 8.24609 40.1211 9.36328H43.3438C43.4219 8.87109 43.5781 8.48047 43.8125 8.19141C44.1406 7.80078 44.6992 7.60547 45.4883 7.60547C46.1914 7.60547 46.7246 7.70508 47.0879 7.9043C47.4512 8.10352 47.6328 8.46484 47.6328 8.98828C47.6328 9.41797 47.3945 9.73438 46.918 9.9375C46.6523 10.0547 46.2109 10.1523 45.5938 10.2305L44.457 10.3711C43.168 10.5352 42.1914 10.8086 41.5273 11.1914C40.3164 11.8945 39.7109 13.0312 39.7109 14.6016C39.7109 15.8125 40.0879 16.748 40.8418 17.4082C41.5957 18.0684 42.5508 18.3984 43.707 18.3984C44.6133 18.3984 45.4258 18.1914 46.1445 17.7773C46.7461 17.4258 47.2773 17 47.7383 16.5C47.7617 16.7891 47.793 17.0469 47.832 17.2734C47.8711 17.5 47.9414 17.7422 48.043 18H51.6758V17.5078C51.457 17.4062 51.293 17.2773 51.1836 17.1211C51.0742 16.9648 51.0078 16.668 50.9844 16.2305C50.9688 15.6523 50.9609 15.1602 50.9609 14.7539V8.89453C50.9609 7.35547 50.418 6.30859 49.332 5.75391C48.2461 5.19922 47.0039 4.92188 45.6055 4.92188ZM44.6914 15.9727C44.2383 15.9727 43.8555 15.8438 43.543 15.5859C43.2227 15.3359 43.0625 14.9258 43.0625 14.3555C43.0625 13.7148 43.3203 13.2422 43.8359 12.9375C44.1406 12.7578 44.6445 12.6055 45.3477 12.4805L46.0977 12.3398C46.4727 12.2695 46.7676 12.1934 46.9824 12.1113C47.1973 12.0293 47.4102 11.9219 47.6211 11.7891V13.0312C47.5977 14.1484 47.2832 14.918 46.6777 15.3398C46.0723 15.7617 45.4102 15.9727 44.6914 15.9727Z" fill="white"/>
<path fill-rule="evenodd" clip-rule="evenodd" d="M65.5508 18V0.75H62.1641V6.84375C61.7891 6.24219 61.3008 5.77148 60.6992 5.43164C60.0977 5.0918 59.4102 4.92188 58.6367 4.92188C56.957 4.92188 55.6152 5.54688 54.6113 6.79688C53.6074 8.04688 53.1055 9.76172 53.1055 11.9414C53.1055 13.832 53.6152 15.3809 54.6348 16.5879C55.6543 17.7949 56.9102 18.3984 58.4023 18.3984C59.3086 18.3984 60.0664 18.2266 60.6758 17.8828C61.2852 17.5391 61.8281 16.9883 62.3047 16.2305V18H65.5508ZM57.2539 14.5195C56.7852 13.8164 56.5508 12.875 56.5508 11.6953C56.5508 10.6016 56.7793 9.68555 57.2363 8.94727C57.6934 8.20898 58.4102 7.83984 59.3867 7.83984C60.0273 7.83984 60.5898 8.04297 61.0742 8.44922C61.8633 9.12109 62.2578 10.2383 62.2578 11.8008C62.2578 12.918 62.0117 13.8281 61.5195 14.5312C61.0273 15.2344 60.3086 15.5859 59.3633 15.5859C58.418 15.5859 57.7148 15.2305 57.2539 14.5195Z" fill="white"/>
<path d="M74.5742 0.621094V3.33984C74.3867 3.31641 74.0723 3.29883 73.6309 3.28711C73.1895 3.27539 72.8848 3.37305 72.7168 3.58008C72.5488 3.78711 72.4648 4.01562 72.4648 4.26562V5.34375H74.6562V7.69922H72.4648V18H69.1367V7.69922H67.2734V5.34375H69.1016V4.52344C69.1016 3.15625 69.332 2.21484 69.793 1.69922C70.2773 0.933594 71.4453 0.550781 73.2969 0.550781C73.5078 0.550781 73.6992 0.556641 73.8711 0.568359C74.043 0.580078 74.2773 0.597656 74.5742 0.621094Z" fill="white"/>
<path d="M84.7695 16.1953C84.7383 16.2344 84.6602 16.3516 84.5352 16.5469C84.4102 16.7422 84.2617 16.9141 84.0898 17.0625C83.5664 17.5312 83.0605 17.8516 82.5723 18.0234C82.084 18.1953 81.5117 18.2812 80.8555 18.2812C78.9648 18.2812 77.6914 17.6016 77.0352 16.2422C76.668 15.4922 76.4844 14.3867 76.4844 12.9258V5.22656H79.9062V12.9258C79.9062 13.6523 79.9922 14.1992 80.1641 14.5664C80.4688 15.2148 81.0664 15.5391 81.957 15.5391C83.0977 15.5391 83.8789 15.0781 84.3008 14.1562C84.5195 13.6562 84.6289 12.9961 84.6289 12.1758V5.22656H88.0156V18H84.7695V16.1953Z" fill="white"/>
<path d="M91.3086 0.726562H94.6484V18H91.3086V0.726562Z" fill="white"/>
<path d="M117.031 16.7109C115.742 17.8906 114.094 18.4805 112.086 18.4805C109.602 18.4805 107.648 17.6836 106.227 16.0898C104.805 14.4883 104.094 12.293 104.094 9.50391C104.094 6.48828 104.902 4.16406 106.52 2.53125C107.926 1.10938 109.715 0.398438 111.887 0.398438C114.793 0.398438 116.918 1.35156 118.262 3.25781C119.004 4.32812 119.402 5.40234 119.457 6.48047H115.848C115.613 5.65234 115.312 5.02734 114.945 4.60547C114.289 3.85547 113.316 3.48047 112.027 3.48047C110.715 3.48047 109.68 4.00977 108.922 5.06836C108.164 6.12695 107.785 7.625 107.785 9.5625C107.785 11.5 108.186 12.9512 108.986 13.916C109.787 14.8809 110.805 15.3633 112.039 15.3633C113.305 15.3633 114.27 14.9492 114.934 14.1211C115.301 13.6758 115.605 13.0078 115.848 12.1172H119.422C119.109 14 118.312 15.5312 117.031 16.7109Z" fill="white"/>
<path d="M133.449 10.5V18H130.039V10.2305C130.039 9.54297 129.922 8.98828 129.688 8.56641C129.383 7.97266 128.805 7.67578 127.953 7.67578C127.07 7.67578 126.4 7.9707 125.943 8.56055C125.486 9.15039 125.258 9.99219 125.258 11.0859V18H121.93V0.785156H125.258V6.89062C125.742 6.14844 126.303 5.63086 126.939 5.33789C127.576 5.04492 128.246 4.89844 128.949 4.89844C129.738 4.89844 130.455 5.03516 131.1 5.30859C131.744 5.58203 132.273 6 132.688 6.5625C133.039 7.03906 133.254 7.5293 133.332 8.0332C133.41 8.53711 133.449 9.35938 133.449 10.5Z" fill="white"/>
<path fill-rule="evenodd" clip-rule="evenodd" d="M146.316 16.5586C147.02 15.7773 147.414 15.0078 147.5 14.25H144.09C143.91 14.625 143.703 14.918 143.469 15.1289C143.039 15.5195 142.48 15.7148 141.793 15.7148C141.145 15.7148 140.59 15.5547 140.129 15.2344C139.371 14.7188 138.969 13.8203 138.922 12.5391H147.664C147.68 11.4375 147.645 10.5938 147.559 10.0078C147.41 9.00781 147.086 8.12891 146.586 7.37109C146.031 6.51172 145.328 5.88281 144.477 5.48438C143.625 5.08594 142.668 4.88672 141.605 4.88672C139.816 4.88672 138.361 5.47656 137.24 6.65625C136.119 7.83594 135.559 9.53125 135.559 11.7422C135.559 14.1016 136.18 15.8047 137.422 16.8516C138.664 17.8984 140.098 18.4219 141.723 18.4219C143.691 18.4219 145.223 17.8008 146.316 16.5586ZM143.393 8.32617C143.873 8.7832 144.141 9.45312 144.195 10.3359H139.004C139.113 9.50781 139.381 8.85156 139.807 8.36719C140.232 7.88281 140.832 7.64062 141.605 7.64062C142.316 7.64062 142.912 7.86914 143.393 8.32617Z" fill="white"/>
<path d="M156.336 8.30859C154.992 8.30859 154.09 8.74609 153.629 9.62109C153.371 10.1133 153.242 10.8711 153.242 11.8945V18H149.879V5.22656H153.066V7.45312C153.582 6.60156 154.031 6.01953 154.414 5.70703C155.039 5.18359 155.852 4.92188 156.852 4.92188C156.914 4.92188 156.967 4.92383 157.01 4.92773C157.053 4.93164 157.148 4.9375 157.297 4.94531V8.36719C157.086 8.34375 156.898 8.32812 156.734 8.32031C156.57 8.3125 156.438 8.30859 156.336 8.30859Z" fill="white"/>
<path d="M165.676 8.30859C164.332 8.30859 163.43 8.74609 162.969 9.62109C162.711 10.1133 162.582 10.8711 162.582 11.8945V18H159.219V5.22656H162.406V7.45312C162.922 6.60156 163.371 6.01953 163.754 5.70703C164.379 5.18359 165.191 4.92188 166.191 4.92188C166.254 4.92188 166.307 4.92383 166.35 4.92773C166.393 4.93164 166.488 4.9375 166.637 4.94531V8.36719C166.426 8.34375 166.238 8.32812 166.074 8.32031C165.91 8.3125 165.777 8.30859 165.676 8.30859Z" fill="white"/>
<path d="M173.785 14.6484L176.422 5.22656H179.973L175.59 17.7891C174.746 20.2109 174.078 21.7129 173.586 22.2949C173.094 22.877 172.109 23.168 170.633 23.168C170.336 23.168 170.098 23.166 169.918 23.1621C169.738 23.1582 169.469 23.1445 169.109 23.1211V20.4492L169.531 20.4727C169.859 20.4883 170.172 20.4766 170.469 20.4375C170.766 20.3984 171.016 20.3086 171.219 20.168C171.414 20.0352 171.596 19.7578 171.764 19.3359C171.932 18.9141 172 18.6562 171.969 18.5625L167.281 5.22656H170.996L173.785 14.6484Z" fill="white"/>
<path d="M201.43 0.726562V3.78516H196.262V18H192.629V3.78516H187.438V0.726562H201.43Z" fill="white"/>
<path fill-rule="evenodd" clip-rule="evenodd" d="M215.539 11.6367C215.539 9.79297 215 8.19531 213.922 6.84375C212.844 5.49219 211.207 4.81641 209.012 4.81641C206.816 4.81641 205.18 5.49219 204.102 6.84375C203.023 8.19531 202.484 9.79297 202.484 11.6367C202.484 13.5117 203.023 15.1152 204.102 16.4473C205.18 17.7793 206.816 18.4453 209.012 18.4453C211.207 18.4453 212.844 17.7793 213.922 16.4473C215 15.1152 215.539 13.5117 215.539 11.6367ZM206.744 8.67773C207.271 7.98633 208.023 7.64062 209 7.64062C209.977 7.64062 210.727 7.98633 211.25 8.67773C211.773 9.36914 212.035 10.3555 212.035 11.6367C212.035 12.918 211.773 13.9062 211.25 14.6016C210.727 15.2969 209.977 15.6445 209 15.6445C208.023 15.6445 207.271 15.2969 206.744 14.6016C206.217 13.9062 205.953 12.918 205.953 11.6367C205.953 10.3555 206.217 9.36914 206.744 8.67773Z" fill="white"/>
<path d="M225.102 8.74219C224.82 8.125 224.27 7.81641 223.449 7.81641C222.496 7.81641 221.855 8.125 221.527 8.74219C221.348 9.09375 221.258 9.61719 221.258 10.3125V18H217.871V5.25H221.117V7.11328C221.531 6.44922 221.922 5.97656 222.289 5.69531C222.938 5.19531 223.777 4.94531 224.809 4.94531C225.785 4.94531 226.574 5.16016 227.176 5.58984C227.66 5.98828 228.027 6.5 228.277 7.125C228.715 6.375 229.258 5.82422 229.906 5.47266C230.594 5.12109 231.359 4.94531 232.203 4.94531C232.766 4.94531 233.32 5.05469 233.867 5.27344C234.414 5.49219 234.91 5.875 235.355 6.42188C235.715 6.86719 235.957 7.41406 236.082 8.0625C236.16 8.49219 236.199 9.12109 236.199 9.94922L236.176 18H232.754V9.86719C232.754 9.38281 232.676 8.98438 232.52 8.67188C232.223 8.07812 231.676 7.78125 230.879 7.78125C229.957 7.78125 229.32 8.16406 228.969 8.92969C228.789 9.33594 228.699 9.82422 228.699 10.3945V18H225.336V10.3945C225.336 9.63672 225.258 9.08594 225.102 8.74219Z" fill="white"/>
<path fill-rule="evenodd" clip-rule="evenodd" d="M244.297 4.92188C242.148 4.92188 240.633 5.48438 239.75 6.60938C239.195 7.32812 238.883 8.24609 238.812 9.36328H242.035C242.113 8.87109 242.27 8.48047 242.504 8.19141C242.832 7.80078 243.391 7.60547 244.18 7.60547C244.883 7.60547 245.416 7.70508 245.779 7.9043C246.143 8.10352 246.324 8.46484 246.324 8.98828C246.324 9.41797 246.086 9.73438 245.609 9.9375C245.344 10.0547 244.902 10.1523 244.285 10.2305L243.148 10.3711C241.859 10.5352 240.883 10.8086 240.219 11.1914C239.008 11.8945 238.402 13.0312 238.402 14.6016C238.402 15.8125 238.779 16.748 239.533 17.4082C240.287 18.0684 241.242 18.3984 242.398 18.3984C243.305 18.3984 244.117 18.1914 244.836 17.7773C245.438 17.4258 245.969 17 246.43 16.5C246.453 16.7891 246.484 17.0469 246.523 17.2734C246.562 17.5 246.633 17.7422 246.734 18H250.367V17.5078C250.148 17.4062 249.984 17.2773 249.875 17.1211C249.766 16.9648 249.699 16.668 249.676 16.2305C249.66 15.6523 249.652 15.1602 249.652 14.7539V8.89453C249.652 7.35547 249.109 6.30859 248.023 5.75391C246.938 5.19922 245.695 4.92188 244.297 4.92188ZM243.383 15.9727C242.93 15.9727 242.547 15.8438 242.234 15.5859C241.914 15.3359 241.754 14.9258 241.754 14.3555C241.754 13.7148 242.012 13.2422 242.527 12.9375C242.832 12.7578 243.336 12.6055 244.039 12.4805L244.789 12.3398C245.164 12.2695 245.459 12.1934 245.674 12.1113C245.889 12.0293 246.102 11.9219 246.312 11.7891V13.0312C246.289 14.1484 245.975 14.918 245.369 15.3398C244.764 15.7617 244.102 15.9727 243.383 15.9727Z" fill="white"/>
<path d="M258.465 15.6211V18.1172L256.883 18.1758C255.305 18.2305 254.227 17.957 253.648 17.3555C253.273 16.9727 253.086 16.3828 253.086 15.5859V7.72266H251.305V5.34375H253.086V1.78125H256.391V5.34375H258.465V7.72266H256.391V14.4727C256.391 14.9961 256.457 15.3223 256.59 15.4512C256.723 15.5801 257.129 15.6445 257.809 15.6445C257.91 15.6445 258.018 15.6426 258.131 15.6387C258.244 15.6348 258.355 15.6289 258.465 15.6211Z" fill="white"/>
<path fill-rule="evenodd" clip-rule="evenodd" d="M272.879 11.6367C272.879 9.79297 272.34 8.19531 271.262 6.84375C270.184 5.49219 268.547 4.81641 266.352 4.81641C264.156 4.81641 262.52 5.49219 261.441 6.84375C260.363 8.19531 259.824 9.79297 259.824 11.6367C259.824 13.5117 260.363 15.1152 261.441 16.4473C262.52 17.7793 264.156 18.4453 266.352 18.4453C268.547 18.4453 270.184 17.7793 271.262 16.4473C272.34 15.1152 272.879 13.5117 272.879 11.6367ZM264.084 8.67773C264.611 7.98633 265.363 7.64062 266.34 7.64062C267.316 7.64062 268.066 7.98633 268.59 8.67773C269.113 9.36914 269.375 10.3555 269.375 11.6367C269.375 12.918 269.113 13.9062 268.59 14.6016C268.066 15.2969 267.316 15.6445 266.34 15.6445C265.363 15.6445 264.611 15.2969 264.084 14.6016C263.557 13.9062 263.293 12.918 263.293 11.6367C263.293 10.3555 263.557 9.36914 264.084 8.67773Z" fill="white"/>
<path fill-rule="evenodd" clip-rule="evenodd" d="M285.02 16.5586C285.723 15.7773 286.117 15.0078 286.203 14.25H282.793C282.613 14.625 282.406 14.918 282.172 15.1289C281.742 15.5195 281.184 15.7148 280.496 15.7148C279.848 15.7148 279.293 15.5547 278.832 15.2344C278.074 14.7188 277.672 13.8203 277.625 12.5391H286.367C286.383 11.4375 286.348 10.5938 286.262 10.0078C286.113 9.00781 285.789 8.12891 285.289 7.37109C284.734 6.51172 284.031 5.88281 283.18 5.48438C282.328 5.08594 281.371 4.88672 280.309 4.88672C278.52 4.88672 277.064 5.47656 275.943 6.65625C274.822 7.83594 274.262 9.53125 274.262 11.7422C274.262 14.1016 274.883 15.8047 276.125 16.8516C277.367 17.8984 278.801 18.4219 280.426 18.4219C282.395 18.4219 283.926 17.8008 285.02 16.5586ZM282.096 8.32617C282.576 8.7832 282.844 9.45312 282.898 10.3359H277.707C277.816 9.50781 278.084 8.85156 278.51 8.36719C278.936 7.88281 279.535 7.64062 280.309 7.64062C281.02 7.64062 281.615 7.86914 282.096 8.32617Z" fill="white"/>
<path d="M297.418 5.8125C298.418 6.45312 298.992 7.55469 299.141 9.11719H295.801C295.754 8.6875 295.633 8.34766 295.438 8.09766C295.07 7.64453 294.445 7.41797 293.562 7.41797C292.836 7.41797 292.318 7.53125 292.01 7.75781C291.701 7.98438 291.547 8.25 291.547 8.55469C291.547 8.9375 291.711 9.21484 292.039 9.38672C292.367 9.56641 293.527 9.875 295.52 10.3125C296.848 10.625 297.844 11.0977 298.508 11.7305C299.164 12.3711 299.492 13.1719 299.492 14.1328C299.492 15.3984 299.021 16.4316 298.08 17.2324C297.139 18.0332 295.684 18.4336 293.715 18.4336C291.707 18.4336 290.225 18.0098 289.268 17.1621C288.311 16.3145 287.832 15.2344 287.832 13.9219H291.219C291.289 14.5156 291.441 14.9375 291.676 15.1875C292.09 15.6328 292.855 15.8555 293.973 15.8555C294.629 15.8555 295.15 15.7578 295.537 15.5625C295.924 15.3672 296.117 15.0742 296.117 14.6836C296.117 14.3086 295.961 14.0234 295.648 13.8281C295.336 13.6328 294.176 13.2969 292.168 12.8203C290.723 12.4609 289.703 12.0117 289.109 11.4727C288.516 10.9414 288.219 10.1758 288.219 9.17578C288.219 7.99609 288.682 6.98242 289.607 6.13477C290.533 5.28711 291.836 4.86328 293.516 4.86328C295.109 4.86328 296.41 5.17969 297.418 5.8125Z" fill="white"/>
</svg>
