<svg width="67" height="60" viewBox="0 0 67 60" fill="none" xmlns="http://www.w3.org/2000/svg">
<mask id="mask0_0_172" style="mask-type:luminance" maskUnits="userSpaceOnUse" x="0" y="0" width="65" height="59">
<path fill-rule="evenodd" clip-rule="evenodd" d="M50.5961 19.4427C50.3333 19.6649 49.9233 19.555 49.6313 19.6799C49.598 19.6941 49.566 19.7119 49.5359 19.7333C49.193 19.9783 49.5674 20.4299 49.7578 20.6685C50.0919 21.0881 51.0307 21.9152 51.6025 21.7669C51.9472 21.6775 52.0561 21.1529 52.0668 20.8514C52.0853 20.3145 51.931 19.4697 51.4273 19.1599C51.0414 18.9227 50.8685 19.2128 50.5961 19.4427ZM53.4203 21.4982C54.0722 22.01 55.0684 21.2469 54.309 20.6087C53.5723 19.9901 52.696 20.9298 53.4203 21.4982ZM47.8391 22.7873C47.4104 23.1003 47.2659 23.4479 47.3099 23.7781C47.4758 25.0248 50.3292 26.0302 50.7351 24.045C51.014 22.6783 48.7384 22.1305 47.8391 22.7873ZM30.3721 58.4508C30.0589 59.4064 27.8801 57.0435 28.9584 56.9554C29.4306 56.9167 30.6047 57.7414 30.3721 58.4508ZM31.0268 56.9345C30.6182 58.1821 27.7754 55.0984 29.1822 54.9834C29.7985 54.9328 31.3303 56.0089 31.0268 56.9345ZM28.4621 56.8186C28.647 57.5092 27.6999 59.0438 27.0827 58.6533C25.7779 57.8281 26.6606 56.237 26.9335 56.0536C27.243 55.8451 28.1512 55.6577 28.4621 56.8186ZM62.0601 41.2803C60.9731 41.1721 61.1682 39.5646 62.1537 40.2402C62.5856 40.5363 62.8669 41.3601 62.0601 41.2803ZM63.9173 41.5512C62.4989 41.4107 62.7529 39.3128 64.0392 40.1946C64.6026 40.581 64.9696 41.6557 63.9173 41.5512ZM61.8526 39.9122C61.4147 40.0956 59.2948 39.6404 59.1099 39.2116C58.7188 38.3047 60.8327 38.7134 61.221 38.8694C61.6612 39.046 62.5893 39.6043 61.8526 39.9122ZM56.4493 36.3906C55.9753 36.9243 53.3234 36.5311 53.1061 35.9085C52.81 35.06 55.3636 34.8944 55.9377 34.9884C56.5419 35.0874 56.9585 35.8172 56.4493 36.3906ZM52.3156 38.8489C51.0868 38.551 46.5518 37.8563 46.3336 36.3227C46.8776 36.2068 47.4767 36.6383 48.0313 36.7533C49.1267 36.98 50.2949 36.912 51.4065 37.0051C53.797 37.204 56.0021 38.0661 57.9126 39.4962C58.6502 40.0486 60.6673 42.0963 58.4093 41.314C56.3117 40.5869 54.5106 39.3808 52.3156 38.8489ZM32.808 13.8123C32.5907 12.104 33.4646 10.8304 33.7862 9.24974C33.8997 8.69094 34.0999 5.6059 32.372 6.10403C30.4578 6.65599 31.7353 9.55172 31.9851 10.7131C32.5634 13.4063 31.3202 15.6315 31.1181 18.1358C33.7227 17.3001 33.0286 15.5416 32.808 13.8123ZM22.3221 14.6799C22.6247 13.8296 21.0117 13.134 20.6721 13.7033C20.1943 14.5038 22.0793 15.3614 22.3221 14.6799ZM24.0236 17.2595C24.5754 16.4019 22.6279 16.0046 22.6604 15.8272C22.5468 16.4462 23.5542 17.9894 24.0236 17.2595ZM34.7083 1.96935C36.6118 1.88222 34.6054 0.0726171 33.0684 0.00328008C30.9073 -0.0947954 33.1824 2.0396 34.7083 1.96935ZM33.9511 4.68171C36.3435 4.82403 33.2311 2.83196 33.5707 2.78497C32.3882 2.94828 31.9146 4.56082 33.9511 4.68171ZM5.41953 51.3747C5.43621 51.7524 5.10491 51.8542 5.02845 52.1434C5.01965 52.1767 5.01409 52.2122 5.01316 52.251C5.00019 52.6962 5.578 52.9777 5.87919 53.131C6.40742 53.4001 7.61727 53.781 7.84292 53.3166C7.97869 53.037 7.63302 52.4198 7.40273 52.0918C6.99311 51.5093 6.23876 50.69 5.69477 50.6284C5.27774 50.5819 5.40193 50.9838 5.41953 51.3747ZM3.57396 55.441C3.72872 55.5879 3.91082 55.6818 4.0818 55.6723C4.46593 55.6508 4.71615 55.155 4.77082 54.744C4.8028 54.5008 4.8533 54.4132 5.02289 54.3051C5.15032 54.2239 5.54742 54.1532 5.50062 53.88C5.44224 53.536 5.08081 53.5324 4.92883 53.5775C4.62023 53.6688 4.52849 54.0187 4.39828 54.3211C4.28661 54.5802 4.0489 54.499 3.81352 54.4046C3.54338 54.296 3.27694 54.1706 3.20883 54.5236C3.16481 54.7522 3.25285 55.0131 3.39927 55.2298C3.28945 55.1294 3.15322 55.0469 2.98549 54.9985C2.05969 54.7321 2.27237 56.2032 3.15091 56.4226C3.71436 56.5631 3.87236 55.9218 3.57396 55.441ZM8.71914 52.059C9.51011 52.2565 9.50779 50.9094 8.55326 50.6348C7.62792 50.3684 7.84061 51.8391 8.71914 52.059ZM12.5303 51.7766C12.212 52.3304 11.8436 52.7159 11.39 53.1191C11.2486 53.245 10.175 54.0743 10.6616 54.3932C11.3464 54.8425 12.439 52.6693 12.7504 52.3135C13.1026 51.9116 13.5316 51.4158 13.6716 50.8041C13.1605 50.6239 12.7388 51.4135 12.5303 51.7766ZM11.4303 54.8174C11.0832 54.6258 10.5351 55.0199 11.0267 55.472C11.605 56.0034 11.3307 54.7622 11.4303 54.8174ZM14.2827 54.6153C14.6006 55.2298 14.9472 55.5559 15.2739 55.6713C16.5074 56.1065 17.4559 53.5356 15.4805 52.1224C14.121 51.1498 13.616 53.3257 14.2827 54.6153ZM14.1627 21.0918C13.9987 22.2158 12.4214 21.8809 12.6322 20.7122C12.6707 20.5001 12.7486 20.3464 12.8482 20.2369C12.6253 20.3478 12.3501 20.3578 12.0985 20.1991C11.7097 19.9536 11.8232 19.638 11.9182 19.31C12.0007 19.024 12.0688 18.7288 11.7783 18.4634C11.4396 18.1536 11.0522 17.8767 10.9271 17.4096C10.8654 17.1797 10.839 16.6807 11.2069 16.7468C11.4998 16.7988 11.6096 17.3795 11.7083 17.5912C11.8399 17.8722 11.9391 17.9794 12.2055 18.1281C12.6559 18.3794 13.2147 18.9387 13.2703 19.4806C13.2953 19.7219 13.2087 19.9336 13.0622 20.0855C13.5585 19.877 14.2679 20.371 14.1627 21.0918ZM58.4788 43.52C59.2633 43.5656 61.5361 43.3996 60.8128 44.7676C60.1325 46.054 58.799 45.1207 58.343 44.9547C56.9849 44.4611 57.3496 46.2123 56.137 46.5608C55.517 46.7392 55.4614 46.2379 54.821 46.9914C54.6269 47.22 54.498 47.5201 54.201 47.6588C53.8744 47.8112 53.5292 47.5826 53.3531 47.4868C52.6701 47.116 52.7831 46.4655 53.2131 45.5354C53.3591 45.2197 53.7979 44.6427 53.6672 44.4086C53.5301 44.1623 53.228 44.4679 52.9268 44.5473C52.6302 44.6253 52.2354 44.5551 52.2113 44.2992C52.1595 43.7458 53.2803 43.3152 53.5792 42.8691C53.9531 42.3107 53.0968 42.5096 52.8008 42.5315C52.3499 42.5644 51.5483 42.3956 52.4866 41.8386C53.057 41.5001 53.5709 41.5321 53.9731 41.6456C54.1755 41.7031 54.3294 41.8427 54.5365 41.887C54.8219 41.9472 54.8697 41.8724 55.2649 41.6958C56.0758 41.3332 56.2417 42.178 56.4395 42.542C56.7708 43.151 57.6415 43.4699 58.4723 43.5196C58.4746 43.5196 58.4765 43.5196 58.4788 43.52ZM4.16521 25.8322C3.18612 26.1402 0.666353 27.2924 0.077418 25.7807C-0.475838 24.3593 2.09305 24.581 2.80941 24.523C4.94227 24.3506 2.65789 22.9881 3.72779 22.1469C4.27503 21.7172 4.87091 22.1286 4.83338 21.1885C4.82226 20.9038 4.65776 20.5854 4.86303 20.3332C5.08962 20.0554 5.74064 20.1014 6.0511 20.1069C7.25353 20.127 7.80678 20.7433 8.27987 21.7432C8.44066 22.083 8.53055 22.78 8.93275 22.9256C9.35627 23.0793 9.39148 22.6792 9.66487 22.4767C9.93408 22.2773 10.4762 22.1633 10.7755 22.3754C11.4219 22.8343 10.548 23.7061 10.6653 24.227C10.8122 24.8784 11.6175 24.326 11.946 24.1754C12.4455 23.9469 13.5752 23.7384 13.0507 24.6398C12.7323 25.1868 12.0892 25.387 11.4914 25.4664C11.1912 25.5061 10.8608 25.4527 10.5684 25.5061C10.1658 25.5804 10.1889 25.6667 9.90674 25.9955C9.328 26.6707 8.23771 26.0088 7.61819 25.7798C6.58165 25.3961 5.21195 25.5047 4.17355 25.83C4.17077 25.8304 4.16799 25.8313 4.16521 25.8322ZM50.5465 12.702C49.8459 12.5077 49.9395 12.5464 49.364 12.9328C48.8149 13.3009 46.8544 14.6941 48.5114 14.913C49.1235 14.9938 49.4919 14.5134 50.0081 14.3136C50.4547 14.1412 51.4913 14.2954 51.8263 13.9861C52.6367 13.2357 51.0997 12.8557 50.5465 12.702ZM47.2038 16.1351C47.5745 15.3806 46.7696 14.9409 46.8442 14.2406C46.9262 13.4702 50.2958 11.1761 47.6352 10.8869C45.5635 10.6616 45.3767 13.9879 44.3865 15.1137C43.8852 15.683 41.744 17.5565 41.8751 18.4059C42.0642 19.6334 43.9417 17.7257 44.4417 17.4931C45.1854 17.1469 46.8039 16.948 47.2038 16.1351ZM37.2869 16.2788C37.6817 16.625 38.2678 16.7336 39.025 16.4006C40.9711 15.5444 40.4855 10.5498 37.6599 12.7143C36.476 13.6212 36.4232 15.5202 37.2869 16.2788ZM17.4855 45.2069C17.4137 44.6969 16.3934 44.1929 15.8003 44.2736C15.2072 44.3544 14.7841 44.8338 14.8559 45.3442C14.9273 45.8547 15.4666 46.2027 16.0597 46.122C16.6528 46.0413 17.5569 45.7174 17.4855 45.2069ZM12.9793 45.0993C11.3566 44.3019 8.56901 44.8607 8.07044 45.8437C7.57232 46.8272 8.48376 48.2705 10.1065 49.0679C11.7296 49.8648 13.4492 49.7143 13.9473 48.7313C14.4459 47.7482 14.602 45.8966 12.9793 45.0993ZM49.1842 33.9346C49.8463 34.0491 50.0512 34.0104 50.5266 33.4611C50.7689 33.1811 50.6753 32.8216 51.0659 32.5297C51.4695 32.2281 51.9167 32.3317 52.3606 32.2213C53.2247 32.0064 53.7706 31.6967 54.1199 30.7958C54.7033 29.2891 53.9698 27.3951 52.3221 26.9622C50.2708 26.423 49.3547 28.7348 48.1963 29.9021C47.4364 30.6676 46.5481 31.4198 45.6761 32.0571C45.3281 32.3116 42.5572 34.2946 44.6289 34.2321C45.5241 34.2051 45.993 33.7631 46.8159 33.6021C47.0462 33.5569 47.2779 33.5547 47.5096 33.5779C48.0744 33.6345 48.6384 33.8407 49.1842 33.9346ZM38.2711 51.1175C37.9101 50.9829 37.5658 50.8255 37.267 50.6408C36.5515 50.1983 35.9352 49.6272 35.0428 49.5327C34.193 49.4429 34.237 50.3324 34.1851 50.961C34.0804 52.2346 34.0869 53.7212 34.4446 54.9643C35.0521 57.0763 36.4843 57.9599 38.7335 57.4586C39.9021 57.1981 41.9645 56.4578 42.1615 55.1253C42.3779 53.6565 41.5975 51.9413 40.0175 51.606C39.4693 51.4892 38.8484 51.3328 38.2711 51.1175ZM8.78216 27.3317C6.46905 27.9808 4.61745 31.9211 6.04461 33.9866C7.31701 35.8286 9.34746 35.0801 10.2492 33.4771C10.6843 32.7039 10.9308 31.4472 11.7143 30.9335C12.2815 30.5618 13.6146 30.9545 13.9714 30.3642C14.8879 28.837 9.76635 27.0557 8.78216 27.3317ZM27.9733 20.8705C27.9918 21.6346 27.8889 22.4895 28.881 22.5086C28.1707 22.4949 32.5221 11.0676 26.8983 11.9936C22.4236 12.7316 27.5285 18.3872 27.9279 20.3765C27.9589 20.5293 27.9691 20.6977 27.9733 20.8705ZM24.91 24.1093C26.6314 23.7257 28.0154 26.9781 29.8819 25.0901C30.5792 24.3844 30.6112 21.3938 32.132 21.8864C32.7612 22.0903 32.3488 23.0551 33.2371 22.8594C33.8747 22.7194 33.9553 21.6442 34.0809 21.1816C34.3121 20.3304 34.0698 17.2413 35.0678 16.9389C37.033 16.3436 35.4436 19.9796 35.5052 20.6575C36.4941 20.8468 37.3026 20.2182 38.2414 20.1138C39.1394 20.0139 40.1889 20.2214 41.0452 20.4732C42.7027 20.9609 44.2943 21.9685 45.0644 23.5414C45.9759 25.4034 45.2609 27.0183 44.0789 28.5528C43.1595 29.747 40.8779 31.4713 41.2755 33.1528C41.5642 33.1605 41.7973 33.3558 42.0961 33.3466C42.5715 34.1536 41.4752 34.2102 41.6383 35.1188C41.7722 35.8656 42.9348 36.4846 43.261 37.1985C43.7527 38.2764 43.4376 38.5939 44.824 38.9109C45.5097 39.0679 46.9624 38.6838 47.3706 39.4013C47.9086 40.3469 46.4828 40.6576 46.6139 41.5362C48.1226 42.1848 49.4516 44.1313 49.7782 45.6768C50.2323 47.8258 48.9502 48.3723 47.3618 49.3179C46.2803 49.9615 46.7154 49.6167 46.6491 50.8688C46.5574 52.6077 45.5079 53.4188 43.9074 51.8295C42.8792 50.8082 42.5428 48.2464 41.099 47.6574C38.7233 46.6881 41.1555 49.6459 40.4415 50.446C39.5217 51.4778 38.8215 48.7869 38.4559 48.339C37.6539 47.3568 36.6173 47.2615 35.4886 46.6876C34.75 46.3122 33.7343 45.0423 33.1894 46.5549C32.6139 48.1533 34.1638 47.9407 32.2371 48.5251C31.139 48.8581 31.1204 48.88 30.6928 49.8292C30.5 50.2567 30.7317 50.6513 30.437 51.1498C30.19 51.5677 29.6103 51.7698 29.2934 52.1388C28.7828 52.7336 28.5803 53.458 28.147 54.1021C27.3 55.3607 26.0712 56.1125 24.5092 55.6581C22.1914 54.9834 23.3582 52.5694 23.9791 51.0887C24.2979 50.3278 24.8567 49.3434 24.1561 48.5867C23.4328 47.8052 22.7609 48.1679 22.3226 48.9288C21.7619 49.9022 22.3972 51.0559 21.3898 51.9326C20.527 52.6839 18.8691 52.7227 18.2908 51.6192C17.4906 50.0915 19.2431 48.4265 20.1327 47.371C20.5423 46.8847 21.3351 46.3747 21.0275 45.6467C20.8741 45.284 19.5132 44.7394 19.3478 45.2275C19.6786 44.2522 20.4798 42.9024 19.4469 42.3536C19.1198 42.1803 18.3464 42.5612 17.8937 42.3969C17.4318 42.2295 17.3136 41.5613 16.796 41.4372C15.9115 41.2251 14.6822 42.1141 13.7156 42.157C12.5882 42.2063 10.6027 42.1274 9.75893 41.2885C7.14417 38.6874 13.7137 36.428 15.3221 35.7306C16.1149 35.3871 17.8164 34.7343 17.0601 33.7882C16.4587 33.036 14.5756 33.8753 15.8077 32.1141C16.2956 31.4166 18.6462 31.3108 18.6967 30.5827C18.7588 29.6877 17.2399 29.8483 17.2988 28.759C17.3576 27.6669 19.0633 27.6259 18.2779 26.4107C17.9688 25.9321 15.4977 25.2237 16.739 24.0888C17.5152 23.3794 18.5068 25.1019 19.4474 25.0609C20.2787 25.0244 18.5781 21.979 18.4396 21.7687C17.5958 20.4883 16.6403 19.2899 16.7599 17.6423C16.8748 16.0639 17.8177 15.8048 19.0447 16.8139C21.2086 18.5934 20.4765 24.7967 24.2886 24.2247C24.5361 24.1878 24.739 24.1472 24.91 24.1093Z" fill="white"/>
</mask>
<g mask="url(#mask0_0_172)">
<path fill-rule="evenodd" clip-rule="evenodd" d="M50.5961 19.4427C50.3333 19.6649 49.9233 19.555 49.6313 19.6799C49.598 19.6941 49.566 19.7119 49.5359 19.7333C49.193 19.9783 49.5674 20.4299 49.7578 20.6685C50.0919 21.0881 51.0307 21.9152 51.6025 21.7669C51.9472 21.6775 52.0561 21.1529 52.0668 20.8514C52.0853 20.3145 51.931 19.4697 51.4273 19.1599C51.0414 18.9227 50.8685 19.2128 50.5961 19.4427ZM53.4203 21.4982C54.0722 22.01 55.0684 21.2469 54.309 20.6087C53.5723 19.9901 52.696 20.9298 53.4203 21.4982ZM47.8391 22.7873C47.4104 23.1003 47.2659 23.4479 47.3099 23.7781C47.4758 25.0248 50.3292 26.0302 50.7351 24.045C51.014 22.6783 48.7384 22.1305 47.8391 22.7873ZM30.3721 58.4508C30.0589 59.4064 27.8801 57.0435 28.9584 56.9554C29.4306 56.9167 30.6047 57.7414 30.3721 58.4508ZM31.0268 56.9345C30.6182 58.1821 27.7754 55.0984 29.1822 54.9834C29.7985 54.9328 31.3303 56.0089 31.0268 56.9345ZM28.4621 56.8186C28.647 57.5092 27.6999 59.0438 27.0827 58.6533C25.7779 57.8281 26.6606 56.237 26.9335 56.0536C27.243 55.8451 28.1512 55.6577 28.4621 56.8186ZM62.0601 41.2803C60.9731 41.1721 61.1682 39.5646 62.1537 40.2402C62.5856 40.5363 62.8669 41.3601 62.0601 41.2803ZM63.9173 41.5512C62.4989 41.4107 62.7529 39.3128 64.0392 40.1946C64.6026 40.581 64.9696 41.6557 63.9173 41.5512ZM61.8526 39.9122C61.4147 40.0956 59.2948 39.6404 59.1099 39.2116C58.7188 38.3047 60.8327 38.7134 61.221 38.8694C61.6612 39.046 62.5893 39.6043 61.8526 39.9122ZM56.4493 36.3906C55.9753 36.9243 53.3234 36.5311 53.1061 35.9085C52.81 35.06 55.3636 34.8944 55.9377 34.9884C56.5419 35.0874 56.9585 35.8172 56.4493 36.3906ZM52.3156 38.8489C51.0868 38.551 46.5518 37.8563 46.3336 36.3227C46.8776 36.2068 47.4767 36.6383 48.0313 36.7533C49.1267 36.98 50.2949 36.912 51.4065 37.0051C53.797 37.204 56.0021 38.0661 57.9126 39.4962C58.6502 40.0486 60.6673 42.0963 58.4093 41.314C56.3117 40.5869 54.5106 39.3808 52.3156 38.8489ZM32.808 13.8123C32.5907 12.104 33.4646 10.8304 33.7862 9.24974C33.8997 8.69094 34.0999 5.6059 32.372 6.10403C30.4578 6.65599 31.7353 9.55172 31.9851 10.7131C32.5634 13.4063 31.3202 15.6315 31.1181 18.1358C33.7227 17.3001 33.0286 15.5416 32.808 13.8123ZM22.3221 14.6799C22.6247 13.8296 21.0117 13.134 20.6721 13.7033C20.1943 14.5038 22.0793 15.3614 22.3221 14.6799ZM24.0236 17.2595C24.5754 16.4019 22.6279 16.0046 22.6604 15.8272C22.5468 16.4462 23.5542 17.9894 24.0236 17.2595ZM34.7083 1.96935C36.6118 1.88222 34.6054 0.0726171 33.0684 0.00328008C30.9073 -0.0947954 33.1824 2.0396 34.7083 1.96935ZM33.9511 4.68171C36.3435 4.82403 33.2311 2.83196 33.5707 2.78497C32.3882 2.94828 31.9146 4.56082 33.9511 4.68171ZM5.41953 51.3747C5.43621 51.7524 5.10491 51.8542 5.02845 52.1434C5.01965 52.1767 5.01409 52.2122 5.01316 52.251C5.00019 52.6962 5.578 52.9777 5.87919 53.131C6.40742 53.4001 7.61727 53.781 7.84292 53.3166C7.97869 53.037 7.63302 52.4198 7.40273 52.0918C6.99311 51.5093 6.23876 50.69 5.69477 50.6284C5.27774 50.5819 5.40193 50.9838 5.41953 51.3747ZM3.57396 55.441C3.72872 55.5879 3.91082 55.6818 4.0818 55.6723C4.46593 55.6508 4.71615 55.155 4.77082 54.744C4.8028 54.5008 4.8533 54.4132 5.02289 54.3051C5.15032 54.2239 5.54742 54.1532 5.50062 53.88C5.44224 53.536 5.08081 53.5324 4.92883 53.5775C4.62023 53.6688 4.52849 54.0187 4.39828 54.3211C4.28661 54.5802 4.0489 54.499 3.81352 54.4046C3.54338 54.296 3.27694 54.1706 3.20883 54.5236C3.16481 54.7522 3.25285 55.0131 3.39927 55.2298C3.28945 55.1294 3.15322 55.0469 2.98549 54.9985C2.05969 54.7321 2.27237 56.2032 3.15091 56.4226C3.71436 56.5631 3.87236 55.9218 3.57396 55.441ZM8.71914 52.059C9.51011 52.2565 9.50779 50.9094 8.55326 50.6348C7.62792 50.3684 7.84061 51.8391 8.71914 52.059ZM12.5303 51.7766C12.212 52.3304 11.8436 52.7159 11.39 53.1191C11.2486 53.245 10.175 54.0743 10.6616 54.3932C11.3464 54.8425 12.439 52.6693 12.7504 52.3135C13.1026 51.9116 13.5316 51.4158 13.6716 50.8041C13.1605 50.6239 12.7388 51.4135 12.5303 51.7766ZM11.4303 54.8174C11.0832 54.6258 10.5351 55.0199 11.0267 55.472C11.605 56.0034 11.3307 54.7622 11.4303 54.8174ZM14.2827 54.6153C14.6006 55.2298 14.9472 55.5559 15.2739 55.6713C16.5074 56.1065 17.4559 53.5356 15.4805 52.1224C14.121 51.1498 13.616 53.3257 14.2827 54.6153ZM14.1627 21.0918C13.9987 22.2158 12.4214 21.8809 12.6322 20.7122C12.6707 20.5001 12.7486 20.3464 12.8482 20.2369C12.6253 20.3478 12.3501 20.3578 12.0985 20.1991C11.7097 19.9536 11.8232 19.638 11.9182 19.31C12.0007 19.024 12.0688 18.7288 11.7783 18.4634C11.4396 18.1536 11.0522 17.8767 10.9271 17.4096C10.8654 17.1797 10.839 16.6807 11.2069 16.7468C11.4998 16.7988 11.6096 17.3795 11.7083 17.5912C11.8399 17.8722 11.9391 17.9794 12.2055 18.1281C12.6559 18.3794 13.2147 18.9387 13.2703 19.4806C13.2953 19.7219 13.2087 19.9336 13.0622 20.0855C13.5585 19.877 14.2679 20.371 14.1627 21.0918ZM58.4788 43.52C59.2633 43.5656 61.5361 43.3996 60.8128 44.7676C60.1325 46.054 58.799 45.1207 58.343 44.9547C56.9849 44.4611 57.3496 46.2123 56.137 46.5608C55.517 46.7392 55.4614 46.2379 54.821 46.9914C54.6269 47.22 54.498 47.5201 54.201 47.6588C53.8744 47.8112 53.5292 47.5826 53.3531 47.4868C52.6701 47.116 52.7831 46.4655 53.2131 45.5354C53.3591 45.2197 53.7979 44.6427 53.6672 44.4086C53.5301 44.1623 53.228 44.4679 52.9268 44.5473C52.6302 44.6253 52.2354 44.5551 52.2113 44.2992C52.1595 43.7458 53.2803 43.3152 53.5792 42.8691C53.9531 42.3107 53.0968 42.5096 52.8008 42.5315C52.3499 42.5644 51.5483 42.3956 52.4866 41.8386C53.057 41.5001 53.5709 41.5321 53.9731 41.6456C54.1755 41.7031 54.3294 41.8427 54.5365 41.887C54.8219 41.9472 54.8697 41.8724 55.2649 41.6958C56.0758 41.3332 56.2417 42.178 56.4395 42.542C56.7708 43.151 57.6415 43.4699 58.4723 43.5196C58.4746 43.5196 58.4765 43.5196 58.4788 43.52ZM4.16521 25.8322C3.18612 26.1402 0.666353 27.2924 0.077418 25.7807C-0.475838 24.3593 2.09305 24.581 2.80941 24.523C4.94227 24.3506 2.65789 22.9881 3.72779 22.1469C4.27503 21.7172 4.87091 22.1286 4.83338 21.1885C4.82226 20.9038 4.65776 20.5854 4.86303 20.3332C5.08962 20.0554 5.74064 20.1014 6.0511 20.1069C7.25353 20.127 7.80678 20.7433 8.27987 21.7432C8.44066 22.083 8.53055 22.78 8.93275 22.9256C9.35627 23.0793 9.39148 22.6792 9.66487 22.4767C9.93408 22.2773 10.4762 22.1633 10.7755 22.3754C11.4219 22.8343 10.548 23.7061 10.6653 24.227C10.8122 24.8784 11.6175 24.326 11.946 24.1754C12.4455 23.9469 13.5752 23.7384 13.0507 24.6398C12.7323 25.1868 12.0892 25.387 11.4914 25.4664C11.1912 25.5061 10.8608 25.4527 10.5684 25.5061C10.1658 25.5804 10.1889 25.6667 9.90674 25.9955C9.328 26.6707 8.23771 26.0088 7.61819 25.7798C6.58165 25.3961 5.21195 25.5047 4.17355 25.83C4.17077 25.8304 4.16799 25.8313 4.16521 25.8322ZM50.5465 12.702C49.8459 12.5077 49.9395 12.5464 49.364 12.9328C48.8149 13.3009 46.8544 14.6941 48.5114 14.913C49.1235 14.9938 49.4919 14.5134 50.0081 14.3136C50.4547 14.1412 51.4913 14.2954 51.8263 13.9861C52.6367 13.2357 51.0997 12.8557 50.5465 12.702ZM47.2038 16.1351C47.5745 15.3806 46.7696 14.9409 46.8442 14.2406C46.9262 13.4702 50.2958 11.1761 47.6352 10.8869C45.5635 10.6616 45.3767 13.9879 44.3865 15.1137C43.8852 15.683 41.744 17.5565 41.8751 18.4059C42.0642 19.6334 43.9417 17.7257 44.4417 17.4931C45.1854 17.1469 46.8039 16.948 47.2038 16.1351ZM37.2869 16.2788C37.6817 16.625 38.2678 16.7336 39.025 16.4006C40.9711 15.5444 40.4855 10.5498 37.6599 12.7143C36.476 13.6212 36.4232 15.5202 37.2869 16.2788ZM17.4855 45.2069C17.4137 44.6969 16.3934 44.1929 15.8003 44.2736C15.2072 44.3544 14.7841 44.8338 14.8559 45.3442C14.9273 45.8547 15.4666 46.2027 16.0597 46.122C16.6528 46.0413 17.5569 45.7174 17.4855 45.2069ZM12.9793 45.0993C11.3566 44.3019 8.56901 44.8607 8.07044 45.8437C7.57232 46.8272 8.48376 48.2705 10.1065 49.0679C11.7296 49.8648 13.4492 49.7143 13.9473 48.7313C14.4459 47.7482 14.602 45.8966 12.9793 45.0993ZM49.1842 33.9346C49.8463 34.0491 50.0512 34.0104 50.5266 33.4611C50.7689 33.1811 50.6753 32.8216 51.0659 32.5297C51.4695 32.2281 51.9167 32.3317 52.3606 32.2213C53.2247 32.0064 53.7706 31.6967 54.1199 30.7958C54.7033 29.2891 53.9698 27.3951 52.3221 26.9622C50.2708 26.423 49.3547 28.7348 48.1963 29.9021C47.4364 30.6676 46.5481 31.4198 45.6761 32.0571C45.3281 32.3116 42.5572 34.2946 44.6289 34.2321C45.5241 34.2051 45.993 33.7631 46.8159 33.6021C47.0462 33.5569 47.2779 33.5547 47.5096 33.5779C48.0744 33.6345 48.6384 33.8407 49.1842 33.9346ZM38.2711 51.1175C37.9101 50.9829 37.5658 50.8255 37.267 50.6408C36.5515 50.1983 35.9352 49.6272 35.0428 49.5327C34.193 49.4429 34.237 50.3324 34.1851 50.961C34.0804 52.2346 34.0869 53.7212 34.4446 54.9643C35.0521 57.0763 36.4843 57.9599 38.7335 57.4586C39.9021 57.1981 41.9645 56.4578 42.1615 55.1253C42.3779 53.6565 41.5975 51.9413 40.0175 51.606C39.4693 51.4892 38.8484 51.3328 38.2711 51.1175ZM8.78216 27.3317C6.46905 27.9808 4.61745 31.9211 6.04461 33.9866C7.31701 35.8286 9.34746 35.0801 10.2492 33.4771C10.6843 32.7039 10.9308 31.4472 11.7143 30.9335C12.2815 30.5618 13.6146 30.9545 13.9714 30.3642C14.8879 28.837 9.76635 27.0557 8.78216 27.3317ZM27.9733 20.8705C27.9918 21.6346 27.8889 22.4895 28.881 22.5086C28.1707 22.4949 32.5221 11.0676 26.8983 11.9936C22.4236 12.7316 27.5285 18.3872 27.9279 20.3765C27.9589 20.5293 27.9691 20.6977 27.9733 20.8705ZM24.91 24.1093C26.6314 23.7257 28.0154 26.9781 29.8819 25.0901C30.5792 24.3844 30.6112 21.3938 32.132 21.8864C32.7612 22.0903 32.3488 23.0551 33.2371 22.8594C33.8747 22.7194 33.9553 21.6442 34.0809 21.1816C34.3121 20.3304 34.0698 17.2413 35.0678 16.9389C37.033 16.3436 35.4436 19.9796 35.5052 20.6575C36.4941 20.8468 37.3026 20.2182 38.2414 20.1138C39.1394 20.0139 40.1889 20.2214 41.0452 20.4732C42.7027 20.9609 44.2943 21.9685 45.0644 23.5414C45.9759 25.4034 45.2609 27.0183 44.0789 28.5528C43.1595 29.747 40.8779 31.4713 41.2755 33.1528C41.5642 33.1605 41.7973 33.3558 42.0961 33.3466C42.5715 34.1536 41.4752 34.2102 41.6383 35.1188C41.7722 35.8656 42.9348 36.4846 43.261 37.1985C43.7527 38.2764 43.4376 38.5939 44.824 38.9109C45.5097 39.0679 46.9624 38.6838 47.3706 39.4013C47.9086 40.3469 46.4828 40.6576 46.6139 41.5362C48.1226 42.1848 49.4516 44.1313 49.7782 45.6768C50.2323 47.8258 48.9502 48.3723 47.3618 49.3179C46.2803 49.9615 46.7154 49.6167 46.6491 50.8688C46.5574 52.6077 45.5079 53.4188 43.9074 51.8295C42.8792 50.8082 42.5428 48.2464 41.099 47.6574C38.7233 46.6881 41.1555 49.6459 40.4415 50.446C39.5217 51.4778 38.8215 48.7869 38.4559 48.339C37.6539 47.3568 36.6173 47.2615 35.4886 46.6876C34.75 46.3122 33.7343 45.0423 33.1894 46.5549C32.6139 48.1533 34.1638 47.9407 32.2371 48.5251C31.139 48.8581 31.1204 48.88 30.6928 49.8292C30.5 50.2567 30.7317 50.6513 30.437 51.1498C30.19 51.5677 29.6103 51.7698 29.2934 52.1388C28.7828 52.7336 28.5803 53.458 28.147 54.1021C27.3 55.3607 26.0712 56.1125 24.5092 55.6581C22.1914 54.9834 23.3582 52.5694 23.9791 51.0887C24.2979 50.3278 24.8567 49.3434 24.1561 48.5867C23.4328 47.8052 22.7609 48.1679 22.3226 48.9288C21.7619 49.9022 22.3972 51.0559 21.3898 51.9326C20.527 52.6839 18.8691 52.7227 18.2908 51.6192C17.4906 50.0915 19.2431 48.4265 20.1327 47.371C20.5423 46.8847 21.3351 46.3747 21.0275 45.6467C20.8741 45.284 19.5132 44.7394 19.3478 45.2275C19.6786 44.2522 20.4798 42.9024 19.4469 42.3536C19.1198 42.1803 18.3464 42.5612 17.8937 42.3969C17.4318 42.2295 17.3136 41.5613 16.796 41.4372C15.9115 41.2251 14.6822 42.1141 13.7156 42.157C12.5882 42.2063 10.6027 42.1274 9.75893 41.2885C7.14417 38.6874 13.7137 36.428 15.3221 35.7306C16.1149 35.3871 17.8164 34.7343 17.0601 33.7882C16.4587 33.036 14.5756 33.8753 15.8077 32.1141C16.2956 31.4166 18.6462 31.3108 18.6967 30.5827C18.7588 29.6877 17.2399 29.8483 17.2988 28.759C17.3576 27.6669 19.0633 27.6259 18.2779 26.4107C17.9688 25.9321 15.4977 25.2237 16.739 24.0888C17.5152 23.3794 18.5068 25.1019 19.4474 25.0609C20.2787 25.0244 18.5781 21.979 18.4396 21.7687C17.5958 20.4883 16.6403 19.2899 16.7599 17.6423C16.8748 16.0639 17.8177 15.8048 19.0447 16.8139C21.2086 18.5934 20.4765 24.7967 24.2886 24.2247C24.5361 24.1878 24.739 24.1472 24.91 24.1093Z" fill="url(#paint0_linear_0_172)"/>
</g>
<defs>
<linearGradient id="paint0_linear_0_172" x1="1.58441" y1="-1.05137" x2="1.58441" y2="54.7836" gradientUnits="userSpaceOnUse">
<stop stop-color="#E14221"/>
<stop offset="1" stop-color="#C02121"/>
</linearGradient>
</defs>
</svg>
